# xmcd
#
# Track frame offsets:
#	150
#	14067
#	30535
#	54427
#	76557
#	92892
#	109997
#	123425
#	142937
#	159662
#	174832
#	195745
#	211860
#	229660
#
# Disc length: 3201 seconds
#
# Revision: 0
# Processed by: cddbd v1.4PL0 Copyright (c) Steve Scherf et al.
# Submitted via: dBpowerAMP V4.0
#
DISCID=ae0c7f0e
DTITLE=Juan Antonio Castillo - Las Increibles Aventuras de Juan Antonio Canta
DYEAR=1900
DGENRE=
TTITLE0=Te Quiero
TTITLE1=Catherine Devenue
TTITLE2=Copla del Viudo del Submarino
TTITLE3=Johny Mc'N'Roe
TTITLE4=Cama Roja
TTITLE5=Si Tu, Si Yo
TTITLE6=Madrid
TTITLE7=Pasa la Gorra
TTITLE8=Gigi En Su Senectud
TTITLE9=Danza de los Cuarenta Limones
TTITLE10=Balada del Adulterio
TTITLE11=Bella Di Napoli
TTITLE12=Que Bonito
TTITLE13=La Jaula de los Monos
EXTD=Las Increibles Aventuras de Juan Antonio Canta
EXTT0=
EXTT1=
EXTT2=
EXTT3=
EXTT4=
EXTT5=
EXTT6=
EXTT7=
EXTT8=
EXTT9=
EXTT10=
EXTT11=
EXTT12=
EXTT13=
PLAYORDER=
